<?xml version="1.0" encoding="UTF-8" standalone="no"?>
<!DOCTYPE svg PUBLIC "-//W3C//DTD SVG 1.1//EN" "http://www.w3.org/Graphics/SVG/1.1/DTD/svg11.dtd">
<svg width="100%" height="100%" viewBox="0 0 1238 2035" version="1.1" xmlns="http://www.w3.org/2000/svg" xmlns:xlink="http://www.w3.org/1999/xlink" xml:space="preserve" xmlns:serif="http://www.serif.com/" style="fill-rule:evenodd;clip-rule:evenodd;stroke-linejoin:round;stroke-miterlimit:1.5;">
    <g id="Layer1">
    </g>
    <g transform="matrix(1,0,0,1,-935.244,-358.41)">
        <path d="M1389.36,817.116L1389.36,925.673" style="fill:none;stroke:rgb(215,137,94);stroke-width:28.08px;"/>
    </g>
    <g transform="matrix(1,0,0,1,-935.244,-358.41)">
        <path d="M1716.8,817.116L1716.8,925.673" style="fill:none;stroke:rgb(215,137,94);stroke-width:28.08px;"/>
    </g>
    <g transform="matrix(1,0,0,1,-931.244,-354.41)">
        <path d="M1408.93,1231.77C1440.96,1270.92 1387.58,1317.19 1419.61,1354.56" style="fill:none;stroke:rgb(215,137,94);stroke-width:28.08px;"/>
    </g>
    <g transform="matrix(1,0,0,1,-643.642,36.1975)">
        <path d="M1408.93,1231.77C1440.96,1270.92 1387.58,1317.19 1419.61,1354.56" style="fill:none;stroke:rgb(215,137,94);stroke-width:28.08px;"/>
    </g>
    <g transform="matrix(-1,0,0,1,2166.99,-349.027)">
        <path d="M1408.93,1231.77C1440.96,1270.92 1387.58,1317.19 1419.61,1354.56" style="fill:none;stroke:rgb(215,137,94);stroke-width:28.08px;"/>
    </g>
    <g transform="matrix(-1,0,0,1,1885.51,34.441)">
        <path d="M1408.93,1231.77C1440.96,1270.92 1387.58,1317.19 1419.61,1354.56" style="fill:none;stroke:rgb(215,137,94);stroke-width:28.08px;"/>
    </g>
    <g transform="matrix(1,0,0,1,-935.244,-223.41)">
        <rect x="1279.02" y="1827.94" width="539.224" height="199.317" style="fill:none;stroke:rgb(215,137,94);stroke-width:28.08px;"/>
    </g>
    <g transform="matrix(1,0,0,1,-935.244,-358.41)">
        <path d="M1387.65,2160.64L1387.65,2251.03" style="fill:none;stroke:rgb(215,137,94);stroke-width:28.08px;"/>
    </g>
    <g transform="matrix(1,0,0,1,-935.244,-358.41)">
        <path d="M1691.53,2156.79L1691.53,2252.95" style="fill:none;stroke:rgb(215,137,94);stroke-width:28.08px;"/>
    </g>
    <g transform="matrix(0.586066,0.586066,-0.586066,0.586066,427.526,-741.182)">
        <rect x="1548" y="1220" width="442" height="442" style="fill:none;stroke:rgb(215,137,94);stroke-width:33.88px;"/>
    </g>
    <g transform="matrix(0.817544,0,0,1.81663,-11.5058,-1974.64)">
        <path d="M1225,1790L1510,2075L1225,2075L1225,1790Z" style="fill:none;stroke:rgb(215,137,94);stroke-width:19.93px;"/>
    </g>
    <g transform="matrix(-0.817544,0,0,1.81663,1248.53,-1974.64)">
        <path d="M1225,1790L1510,2075L1225,2075L1225,1790Z" style="fill:none;stroke:rgb(215,137,94);stroke-width:19.93px;"/>
    </g>
    <g transform="matrix(1,0,0,1,-977.955,-455.488)">
        <path d="M1382.41,2354.35L1490.62,2354.35C1520.37,2413.85 1551.3,2475.72 1551.3,2475.72L1321.73,2475.72C1321.73,2475.72 1352.66,2413.85 1382.41,2354.35Z" style="fill:none;stroke:rgb(215,137,94);stroke-width:28.08px;"/>
    </g>
    <g transform="matrix(1,0,0,1,-677.334,-455.488)">
        <path d="M1382.41,2354.35L1490.62,2354.35C1520.37,2413.85 1551.3,2475.72 1551.3,2475.72L1321.73,2475.72C1321.73,2475.72 1352.66,2413.85 1382.41,2354.35Z" style="fill:none;stroke:rgb(215,137,94);stroke-width:28.08px;"/>
    </g>
    <g transform="matrix(-0.748857,0,0,0.748857,1813.14,-60.2957)">
        <path d="M1225,1790L1510,2075L1225,2075L1225,1790Z" style="fill:none;stroke:rgb(215,137,94);stroke-width:37.5px;"/>
    </g>
    <g transform="matrix(0.748857,0,0,0.748857,-574.978,-60.2957)">
        <path d="M1225,1790L1510,2075L1225,2075L1225,1790Z" style="fill:none;stroke:rgb(215,137,94);stroke-width:37.5px;"/>
    </g>
    <g transform="matrix(0.978001,0,0,0.914639,-893.229,-352.651)">
        <path d="M1553.24,400.913C1699.61,401.761 1870.74,912.809 1819.83,895.607C1817.9,894.954 1285.03,894.561 1278.3,894.418C1204.01,892.833 1412.02,400.095 1553.24,400.913Z" style="fill:none;stroke:rgb(215,137,94);stroke-width:29.66px;"/>
    </g>
    <g transform="matrix(0.782609,0,0,0.914938,-643.983,-280.962)">
        <path d="M1556,939.465C1556,936.447 1553.14,934 1549.61,934C1506.26,934 1257,934 1257,934L1257,1416L1257,1416L1556,1160.25L1556,939.465Z" style="fill:none;stroke:rgb(215,137,94);stroke-width:32.98px;"/>
    </g>
    <g transform="matrix(-0.782609,0,0,0.914938,1886.5,-280.978)">
        <path d="M1556,939.465C1556,938.015 1555.33,936.625 1554.13,935.601C1552.93,934.576 1551.31,934 1549.61,934C1506.26,934 1257,934 1257,934L1257,1416L1257,1416L1556,1160.25L1556,939.465Z" style="fill:none;stroke:rgb(215,137,94);stroke-width:32.98px;"/>
    </g>
    <g transform="matrix(1,0,0,1,-935.244,-358.41)">
        <path d="M1278.87,1747.47C1236.14,1747.93 1223.6,1849.65 1186.45,1851.04" style="fill:none;stroke:rgb(215,137,94);stroke-width:28.08px;"/>
    </g>
    <g transform="matrix(1,0,0,-1,-280.583,3240.1)">
        <path d="M1278.87,1747.47C1236.14,1747.93 1223.6,1849.65 1186.45,1851.04" style="fill:none;stroke:rgb(215,137,94);stroke-width:28.08px;"/>
    </g>
    <g transform="matrix(1,0,0,-1,-935.244,3454.22)">
        <path d="M1278.87,1747.47C1236.14,1747.93 1223.6,1849.65 1186.45,1851.04" style="fill:none;stroke:rgb(215,137,94);stroke-width:28.08px;"/>
    </g>
    <g transform="matrix(1,0,0,1,-293.84,-144.288)">
        <path d="M1278.87,1747.47C1236.14,1747.93 1223.6,1849.65 1186.45,1851.04" style="fill:none;stroke:rgb(215,137,94);stroke-width:28.08px;"/>
    </g>
    <g transform="matrix(1,0,0,1,-927.792,-285.325)">
        <g transform="matrix(116.667,0,0,116.667,1382.64,1468.41)">
            <path d="M0.531,-0.263L0.671,-0.219C0.649,-0.141 0.614,-0.083 0.564,-0.045C0.514,-0.007 0.45,0.012 0.374,0.012C0.278,0.012 0.2,-0.02 0.139,-0.085C0.078,-0.15 0.047,-0.239 0.047,-0.352C0.047,-0.471 0.078,-0.563 0.14,-0.629C0.201,-0.695 0.282,-0.728 0.382,-0.728C0.47,-0.728 0.541,-0.702 0.596,-0.65C0.628,-0.62 0.653,-0.576 0.669,-0.519L0.526,-0.484C0.517,-0.521 0.5,-0.551 0.473,-0.572C0.446,-0.594 0.413,-0.604 0.375,-0.604C0.322,-0.604 0.279,-0.585 0.246,-0.547C0.213,-0.509 0.196,-0.448 0.196,-0.362C0.196,-0.272 0.213,-0.207 0.245,-0.169C0.278,-0.131 0.32,-0.111 0.372,-0.111C0.41,-0.111 0.444,-0.124 0.471,-0.148C0.499,-0.172 0.519,-0.211 0.531,-0.263Z" style="fill:white;fill-rule:nonzero;"/>
        </g>
        <g transform="matrix(116.667,0,0,116.667,1466.89,1468.41)">
            <path d="M0.506,-0.127L0.506,0L0.025,0C0.03,-0.048 0.046,-0.094 0.072,-0.137C0.098,-0.18 0.149,-0.237 0.226,-0.309C0.288,-0.366 0.326,-0.405 0.34,-0.426C0.359,-0.454 0.368,-0.482 0.368,-0.51C0.368,-0.54 0.36,-0.564 0.344,-0.58C0.327,-0.597 0.304,-0.605 0.275,-0.605C0.247,-0.605 0.224,-0.596 0.207,-0.579C0.19,-0.562 0.18,-0.533 0.178,-0.493L0.041,-0.507C0.049,-0.582 0.075,-0.637 0.118,-0.669C0.161,-0.702 0.214,-0.719 0.279,-0.719C0.349,-0.719 0.405,-0.7 0.445,-0.662C0.486,-0.624 0.506,-0.576 0.506,-0.52C0.506,-0.487 0.5,-0.457 0.489,-0.427C0.477,-0.398 0.459,-0.368 0.434,-0.336C0.417,-0.315 0.387,-0.284 0.344,-0.245C0.3,-0.205 0.273,-0.179 0.261,-0.166C0.25,-0.153 0.241,-0.14 0.233,-0.127L0.506,-0.127Z" style="fill:rgb(215,137,94);fill-rule:nonzero;"/>
        </g>
        <g transform="matrix(116.667,0,0,116.667,1531.78,1468.41)">
            <path d="M0.174,0L0.003,-0.716L0.151,-0.716L0.259,-0.224L0.39,-0.716L0.562,-0.716L0.688,-0.216L0.797,-0.716L0.943,-0.716L0.769,0L0.616,0L0.473,-0.535L0.331,0L0.174,0Z" style="fill:white;fill-rule:nonzero;"/>
        </g>
        <g transform="matrix(116.667,0,0,116.667,1641.89,1468.41)">
            <path d="M0.077,0L0.077,-0.71L0.221,-0.71L0.221,-0.121L0.581,-0.121L0.581,0L0.077,0Z" style="fill:white;fill-rule:nonzero;"/>
        </g>
    </g>
    <g transform="matrix(1,0,0,1,-935.485,274.198)">
        <g transform="matrix(116.667,0,0,116.667,1382.64,1468.41)">
            <path d="M0.203,0L0.066,0L0.066,-0.519L0.193,-0.519L0.193,-0.445C0.215,-0.48 0.235,-0.503 0.252,-0.514C0.27,-0.525 0.289,-0.53 0.312,-0.53C0.343,-0.53 0.373,-0.522 0.402,-0.504L0.359,-0.385C0.336,-0.4 0.315,-0.407 0.295,-0.407C0.276,-0.407 0.259,-0.402 0.246,-0.391C0.233,-0.381 0.222,-0.362 0.215,-0.334C0.207,-0.306 0.203,-0.248 0.203,-0.16L0.203,0Z" style="fill:rgb(215,137,94);fill-rule:nonzero;"/>
        </g>
        <g transform="matrix(116.667,0,0,116.667,1428.04,1468.41)">
            <path d="M0.04,-0.267C0.04,-0.312 0.051,-0.356 0.074,-0.399C0.096,-0.442 0.128,-0.474 0.169,-0.497C0.21,-0.519 0.256,-0.53 0.307,-0.53C0.386,-0.53 0.45,-0.505 0.5,-0.454C0.55,-0.403 0.575,-0.339 0.575,-0.261C0.575,-0.182 0.55,-0.117 0.499,-0.066C0.449,-0.014 0.385,0.012 0.308,0.012C0.261,0.012 0.215,0.001 0.172,-0.021C0.129,-0.042 0.096,-0.073 0.074,-0.115C0.051,-0.156 0.04,-0.207 0.04,-0.267ZM0.181,-0.259C0.181,-0.208 0.193,-0.168 0.217,-0.141C0.242,-0.114 0.272,-0.1 0.308,-0.1C0.343,-0.1 0.373,-0.114 0.398,-0.141C0.422,-0.168 0.434,-0.208 0.434,-0.26C0.434,-0.311 0.422,-0.35 0.398,-0.377C0.373,-0.405 0.343,-0.418 0.308,-0.418C0.272,-0.418 0.242,-0.405 0.217,-0.377C0.193,-0.35 0.181,-0.311 0.181,-0.259Z" style="fill:rgb(215,137,94);fill-rule:nonzero;"/>
        </g>
        <g transform="matrix(116.667,0,0,116.667,1499.31,1468.41)">
            <path d="M0.524,-0.365L0.389,-0.341C0.384,-0.368 0.374,-0.388 0.358,-0.402C0.342,-0.416 0.321,-0.422 0.295,-0.422C0.261,-0.422 0.233,-0.411 0.213,-0.387C0.193,-0.363 0.183,-0.324 0.183,-0.269C0.183,-0.207 0.193,-0.164 0.214,-0.138C0.234,-0.113 0.262,-0.1 0.297,-0.1C0.323,-0.1 0.344,-0.108 0.361,-0.122C0.377,-0.137 0.389,-0.163 0.396,-0.199L0.531,-0.176C0.517,-0.114 0.49,-0.067 0.45,-0.036C0.41,-0.004 0.357,0.012 0.291,0.012C0.215,0.012 0.154,-0.012 0.109,-0.06C0.064,-0.108 0.042,-0.174 0.042,-0.259C0.042,-0.344 0.064,-0.411 0.109,-0.459C0.155,-0.506 0.216,-0.53 0.293,-0.53C0.356,-0.53 0.406,-0.517 0.444,-0.49C0.481,-0.462 0.508,-0.421 0.524,-0.365Z" style="fill:rgb(215,137,94);fill-rule:nonzero;"/>
        </g>
        <g transform="matrix(116.667,0,0,116.667,1564.19,1468.41)">
            <path d="M0.067,0L0.067,-0.716L0.204,-0.716L0.204,-0.336L0.365,-0.519L0.534,-0.519L0.356,-0.329L0.546,0L0.398,0L0.268,-0.233L0.204,-0.166L0.204,0L0.067,0Z" style="fill:rgb(215,137,94);fill-rule:nonzero;"/>
        </g>
        <g transform="matrix(116.667,0,0,116.667,1629.07,1468.41)">
            <path d="M0.372,-0.165L0.509,-0.142C0.491,-0.092 0.463,-0.054 0.426,-0.028C0.388,-0.001 0.34,0.012 0.283,0.012C0.193,0.012 0.126,-0.018 0.083,-0.077C0.049,-0.124 0.032,-0.183 0.032,-0.255C0.032,-0.341 0.054,-0.409 0.099,-0.457C0.144,-0.506 0.201,-0.53 0.27,-0.53C0.347,-0.53 0.408,-0.505 0.452,-0.454C0.497,-0.403 0.518,-0.325 0.516,-0.22L0.172,-0.22C0.173,-0.179 0.184,-0.147 0.206,-0.125C0.227,-0.102 0.253,-0.091 0.285,-0.091C0.306,-0.091 0.324,-0.097 0.339,-0.108C0.354,-0.12 0.365,-0.139 0.372,-0.165ZM0.38,-0.304C0.379,-0.343 0.369,-0.374 0.349,-0.394C0.33,-0.415 0.306,-0.425 0.278,-0.425C0.248,-0.425 0.223,-0.414 0.204,-0.393C0.184,-0.371 0.174,-0.341 0.175,-0.304L0.38,-0.304Z" style="fill:rgb(215,137,94);fill-rule:nonzero;"/>
        </g>
        <g transform="matrix(116.667,0,0,116.667,1693.96,1468.41)">
            <path d="M0.31,-0.519L0.31,-0.409L0.216,-0.409L0.216,-0.2C0.216,-0.158 0.217,-0.133 0.219,-0.126C0.22,-0.119 0.224,-0.113 0.231,-0.109C0.237,-0.104 0.245,-0.102 0.254,-0.102C0.267,-0.102 0.285,-0.106 0.309,-0.115L0.321,-0.009C0.289,0.005 0.253,0.012 0.212,0.012C0.188,0.012 0.165,0.008 0.146,-0.001C0.126,-0.009 0.111,-0.02 0.102,-0.033C0.093,-0.046 0.086,-0.064 0.083,-0.086C0.08,-0.102 0.078,-0.135 0.078,-0.183L0.078,-0.409L0.015,-0.409L0.015,-0.519L0.078,-0.519L0.078,-0.622L0.216,-0.702L0.216,-0.519L0.31,-0.519Z" style="fill:rgb(215,137,94);fill-rule:nonzero;"/>
        </g>
    </g>
</svg>
